<mxfile host="app.diagrams.net" agent="Mozilla/5.0 (Windows NT 10.0; Win64; x64) AppleWebKit/537.36 (KHTML, like Gecko) Chrome/131.0.0.0 Safari/537.36 Edg/131.0.0.0" version="24.8.6">
  <diagram name="Page-1" id="ePwsD16DqU7_DC6WwCsZ">
    <mxGraphModel dx="2551" dy="981" grid="1" gridSize="10" guides="1" tooltips="1" connect="1" arrows="1" fold="1" page="1" pageScale="1" pageWidth="827" pageHeight="1169" math="0" shadow="0">
      <root>
        <mxCell id="0" />
        <mxCell id="1" parent="0" />
        <mxCell id="RUaxu5A9DFn4inM2jr1r-6" value="&lt;b&gt;Plateforme d’identité Microsoft&lt;/b&gt;" style="shape=umlLifeline;perimeter=lifelinePerimeter;whiteSpace=wrap;html=1;container=1;dropTarget=0;collapsible=0;recursiveResize=0;outlineConnect=0;portConstraint=eastwest;newEdgeStyle={&quot;edgeStyle&quot;:&quot;elbowEdgeStyle&quot;,&quot;elbow&quot;:&quot;vertical&quot;,&quot;curved&quot;:0,&quot;rounded&quot;:0};fillColor=#e1d5e7;strokeColor=#9673a6;" parent="1" vertex="1">
          <mxGeometry x="320" y="40" width="120" height="440" as="geometry" />
        </mxCell>
        <mxCell id="RUaxu5A9DFn4inM2jr1r-7" value="" style="html=1;points=[[0,0,0,0,5],[0,1,0,0,-5],[1,0,0,0,5],[1,1,0,0,-5]];perimeter=orthogonalPerimeter;outlineConnect=0;targetShapes=umlLifeline;portConstraint=eastwest;newEdgeStyle={&quot;curved&quot;:0,&quot;rounded&quot;:0};fillColor=#e1d5e7;strokeColor=#9673a6;" parent="RUaxu5A9DFn4inM2jr1r-6" vertex="1">
          <mxGeometry x="55" y="80" width="10" height="120" as="geometry" />
        </mxCell>
        <mxCell id="RUaxu5A9DFn4inM2jr1r-42" value="" style="html=1;points=[[0,0,0,0,5],[0,1,0,0,-5],[1,0,0,0,5],[1,1,0,0,-5]];perimeter=orthogonalPerimeter;outlineConnect=0;targetShapes=umlLifeline;portConstraint=eastwest;newEdgeStyle={&quot;curved&quot;:0,&quot;rounded&quot;:0};fillColor=#e1d5e7;strokeColor=#9673a6;" parent="RUaxu5A9DFn4inM2jr1r-6" vertex="1">
          <mxGeometry x="55" y="233" width="10" height="87" as="geometry" />
        </mxCell>
        <mxCell id="RUaxu5A9DFn4inM2jr1r-8" value="&lt;b&gt;Application Front-end&lt;/b&gt;" style="shape=umlLifeline;perimeter=lifelinePerimeter;whiteSpace=wrap;html=1;container=1;dropTarget=0;collapsible=0;recursiveResize=0;outlineConnect=0;portConstraint=eastwest;newEdgeStyle={&quot;edgeStyle&quot;:&quot;elbowEdgeStyle&quot;,&quot;elbow&quot;:&quot;vertical&quot;,&quot;curved&quot;:0,&quot;rounded&quot;:0};fillColor=#fff2cc;strokeColor=#d6b656;" parent="1" vertex="1">
          <mxGeometry x="120" y="40" width="120" height="760" as="geometry" />
        </mxCell>
        <mxCell id="RUaxu5A9DFn4inM2jr1r-9" value="" style="html=1;points=[[0,0,0,0,5],[0,1,0,0,-5],[1,0,0,0,5],[1,1,0,0,-5]];perimeter=orthogonalPerimeter;outlineConnect=0;targetShapes=umlLifeline;portConstraint=eastwest;newEdgeStyle={&quot;curved&quot;:0,&quot;rounded&quot;:0};fillColor=#fff2cc;strokeColor=#d6b656;" parent="RUaxu5A9DFn4inM2jr1r-8" vertex="1">
          <mxGeometry x="55" y="84" width="10" height="36" as="geometry" />
        </mxCell>
        <mxCell id="RUaxu5A9DFn4inM2jr1r-51" value="" style="html=1;points=[[0,0,0,0,5],[0,1,0,0,-5],[1,0,0,0,5],[1,1,0,0,-5]];perimeter=orthogonalPerimeter;outlineConnect=0;targetShapes=umlLifeline;portConstraint=eastwest;newEdgeStyle={&quot;curved&quot;:0,&quot;rounded&quot;:0};fillColor=#fff2cc;strokeColor=#d6b656;" parent="RUaxu5A9DFn4inM2jr1r-8" vertex="1">
          <mxGeometry x="55" y="300" width="10" height="80" as="geometry" />
        </mxCell>
        <mxCell id="RUaxu5A9DFn4inM2jr1r-78" value="" style="html=1;points=[[0,0,0,0,5],[0,1,0,0,-5],[1,0,0,0,5],[1,1,0,0,-5]];perimeter=orthogonalPerimeter;outlineConnect=0;targetShapes=umlLifeline;portConstraint=eastwest;newEdgeStyle={&quot;curved&quot;:0,&quot;rounded&quot;:0};fillColor=#fff2cc;strokeColor=#d6b656;" parent="RUaxu5A9DFn4inM2jr1r-8" vertex="1">
          <mxGeometry x="55" y="680" width="10" height="50" as="geometry" />
        </mxCell>
        <mxCell id="RUaxu5A9DFn4inM2jr1r-11" value="&lt;div style=&quot;font-size: 15px;&quot;&gt;&lt;font style=&quot;font-size: 15px;&quot;&gt;&lt;b&gt;&lt;br&gt;&lt;/b&gt;&lt;/font&gt;&lt;/div&gt;&lt;font style=&quot;font-size: 15px;&quot;&gt;&lt;b&gt;:Utillisateur&lt;/b&gt;&lt;/font&gt;&lt;div style=&quot;font-size: 15px;&quot;&gt;&lt;br&gt;&lt;/div&gt;" style="shape=rect;html=1;whiteSpace=wrap;align=center;fillColor=#dae8fc;strokeColor=#6c8ebf;" parent="1" vertex="1">
          <mxGeometry x="-80" y="40" width="120" height="40" as="geometry" />
        </mxCell>
        <mxCell id="RUaxu5A9DFn4inM2jr1r-12" value="" style="edgeStyle=none;html=1;dashed=1;endArrow=none;align=center;verticalAlign=bottom;exitX=0.5;exitY=1;rounded=0;" parent="1" source="RUaxu5A9DFn4inM2jr1r-15" edge="1">
          <mxGeometry x="1" relative="1" as="geometry">
            <mxPoint x="-20" y="800" as="targetPoint" />
          </mxGeometry>
        </mxCell>
        <mxCell id="RUaxu5A9DFn4inM2jr1r-16" value="" style="edgeStyle=none;html=1;dashed=1;endArrow=none;align=center;verticalAlign=bottom;exitX=0.5;exitY=1;rounded=0;" parent="1" source="RUaxu5A9DFn4inM2jr1r-11" target="RUaxu5A9DFn4inM2jr1r-15" edge="1">
          <mxGeometry x="1" relative="1" as="geometry">
            <mxPoint x="-20" y="390" as="targetPoint" />
            <mxPoint x="-20" y="80" as="sourcePoint" />
          </mxGeometry>
        </mxCell>
        <mxCell id="RUaxu5A9DFn4inM2jr1r-15" value="" style="html=1;points=[[0,0,0,0,5],[0,1,0,0,-5],[1,0,0,0,5],[1,1,0,0,-5]];perimeter=orthogonalPerimeter;outlineConnect=0;targetShapes=umlLifeline;portConstraint=eastwest;newEdgeStyle={&quot;curved&quot;:0,&quot;rounded&quot;:0};fillColor=#dae8fc;strokeColor=#6c8ebf;" parent="1" vertex="1">
          <mxGeometry x="-25" y="120" width="10" height="120" as="geometry" />
        </mxCell>
        <mxCell id="RUaxu5A9DFn4inM2jr1r-17" value="&lt;b&gt;Couche API Layer&lt;/b&gt;" style="shape=umlLifeline;perimeter=lifelinePerimeter;whiteSpace=wrap;html=1;container=1;dropTarget=0;collapsible=0;recursiveResize=0;outlineConnect=0;portConstraint=eastwest;newEdgeStyle={&quot;edgeStyle&quot;:&quot;elbowEdgeStyle&quot;,&quot;elbow&quot;:&quot;vertical&quot;,&quot;curved&quot;:0,&quot;rounded&quot;:0};fillColor=#647687;strokeColor=#314354;fontColor=#ffffff;" parent="1" vertex="1">
          <mxGeometry x="520" y="40" width="120" height="760" as="geometry" />
        </mxCell>
        <mxCell id="RUaxu5A9DFn4inM2jr1r-18" value="" style="html=1;points=[[0,0,0,0,5],[0,1,0,0,-5],[1,0,0,0,5],[1,1,0,0,-5]];perimeter=orthogonalPerimeter;outlineConnect=0;targetShapes=umlLifeline;portConstraint=eastwest;newEdgeStyle={&quot;curved&quot;:0,&quot;rounded&quot;:0};fillColor=#647687;strokeColor=#314354;fontColor=#ffffff;" parent="RUaxu5A9DFn4inM2jr1r-17" vertex="1">
          <mxGeometry x="55" y="360" width="10" height="70" as="geometry" />
        </mxCell>
        <mxCell id="RUaxu5A9DFn4inM2jr1r-56" value="" style="html=1;points=[[0,0,0,0,5],[0,1,0,0,-5],[1,0,0,0,5],[1,1,0,0,-5]];perimeter=orthogonalPerimeter;outlineConnect=0;targetShapes=umlLifeline;portConstraint=eastwest;newEdgeStyle={&quot;curved&quot;:0,&quot;rounded&quot;:0};fillColor=#647687;strokeColor=#314354;fontColor=#ffffff;" parent="RUaxu5A9DFn4inM2jr1r-17" vertex="1">
          <mxGeometry x="55" y="480" width="10" height="40" as="geometry" />
        </mxCell>
        <mxCell id="RUaxu5A9DFn4inM2jr1r-72" value="" style="html=1;points=[[0,0,0,0,5],[0,1,0,0,-5],[1,0,0,0,5],[1,1,0,0,-5]];perimeter=orthogonalPerimeter;outlineConnect=0;targetShapes=umlLifeline;portConstraint=eastwest;newEdgeStyle={&quot;curved&quot;:0,&quot;rounded&quot;:0};fillColor=#647687;strokeColor=#314354;fontColor=#ffffff;" parent="RUaxu5A9DFn4inM2jr1r-17" vertex="1">
          <mxGeometry x="55" y="650" width="10" height="50" as="geometry" />
        </mxCell>
        <mxCell id="RUaxu5A9DFn4inM2jr1r-19" value="&lt;b&gt;Couche BLL Layer&lt;/b&gt;" style="shape=umlLifeline;perimeter=lifelinePerimeter;whiteSpace=wrap;html=1;container=1;dropTarget=0;collapsible=0;recursiveResize=0;outlineConnect=0;portConstraint=eastwest;newEdgeStyle={&quot;edgeStyle&quot;:&quot;elbowEdgeStyle&quot;,&quot;elbow&quot;:&quot;vertical&quot;,&quot;curved&quot;:0,&quot;rounded&quot;:0};fillColor=#bac8d3;strokeColor=#23445d;" parent="1" vertex="1">
          <mxGeometry x="720" y="40" width="120" height="760" as="geometry" />
        </mxCell>
        <mxCell id="RUaxu5A9DFn4inM2jr1r-20" value="" style="html=1;points=[[0,0,0,0,5],[0,1,0,0,-5],[1,0,0,0,5],[1,1,0,0,-5]];perimeter=orthogonalPerimeter;outlineConnect=0;targetShapes=umlLifeline;portConstraint=eastwest;newEdgeStyle={&quot;curved&quot;:0,&quot;rounded&quot;:0};fillColor=#bac8d3;strokeColor=#23445d;" parent="RUaxu5A9DFn4inM2jr1r-19" vertex="1">
          <mxGeometry x="55" y="480" width="10" height="50" as="geometry" />
        </mxCell>
        <mxCell id="RUaxu5A9DFn4inM2jr1r-70" value="" style="html=1;points=[[0,0,0,0,5],[0,1,0,0,-5],[1,0,0,0,5],[1,1,0,0,-5]];perimeter=orthogonalPerimeter;outlineConnect=0;targetShapes=umlLifeline;portConstraint=eastwest;newEdgeStyle={&quot;curved&quot;:0,&quot;rounded&quot;:0};fillColor=#bac8d3;strokeColor=#23445d;" parent="RUaxu5A9DFn4inM2jr1r-19" vertex="1">
          <mxGeometry x="55" y="620" width="10" height="50" as="geometry" />
        </mxCell>
        <mxCell id="RUaxu5A9DFn4inM2jr1r-21" value="&lt;b&gt;Couche DAL Layer&lt;/b&gt;" style="shape=umlLifeline;perimeter=lifelinePerimeter;whiteSpace=wrap;html=1;container=1;dropTarget=0;collapsible=0;recursiveResize=0;outlineConnect=0;portConstraint=eastwest;newEdgeStyle={&quot;edgeStyle&quot;:&quot;elbowEdgeStyle&quot;,&quot;elbow&quot;:&quot;vertical&quot;,&quot;curved&quot;:0,&quot;rounded&quot;:0};fillColor=#b1ddf0;strokeColor=#10739e;" parent="1" vertex="1">
          <mxGeometry x="920" y="40" width="120" height="760" as="geometry" />
        </mxCell>
        <mxCell id="RUaxu5A9DFn4inM2jr1r-22" value="" style="html=1;points=[[0,0,0,0,5],[0,1,0,0,-5],[1,0,0,0,5],[1,1,0,0,-5]];perimeter=orthogonalPerimeter;outlineConnect=0;targetShapes=umlLifeline;portConstraint=eastwest;newEdgeStyle={&quot;curved&quot;:0,&quot;rounded&quot;:0};fillColor=#b1ddf0;strokeColor=#10739e;" parent="RUaxu5A9DFn4inM2jr1r-21" vertex="1">
          <mxGeometry x="55" y="510" width="10" height="50" as="geometry" />
        </mxCell>
        <mxCell id="RUaxu5A9DFn4inM2jr1r-68" value="" style="html=1;points=[[0,0,0,0,5],[0,1,0,0,-5],[1,0,0,0,5],[1,1,0,0,-5]];perimeter=orthogonalPerimeter;outlineConnect=0;targetShapes=umlLifeline;portConstraint=eastwest;newEdgeStyle={&quot;curved&quot;:0,&quot;rounded&quot;:0};fillColor=#b1ddf0;strokeColor=#10739e;" parent="RUaxu5A9DFn4inM2jr1r-21" vertex="1">
          <mxGeometry x="55" y="590" width="10" height="50" as="geometry" />
        </mxCell>
        <mxCell id="RUaxu5A9DFn4inM2jr1r-23" value="&lt;b&gt;Base de Données&lt;/b&gt;" style="shape=umlLifeline;perimeter=lifelinePerimeter;whiteSpace=wrap;html=1;container=1;dropTarget=0;collapsible=0;recursiveResize=0;outlineConnect=0;portConstraint=eastwest;newEdgeStyle={&quot;edgeStyle&quot;:&quot;elbowEdgeStyle&quot;,&quot;elbow&quot;:&quot;vertical&quot;,&quot;curved&quot;:0,&quot;rounded&quot;:0};fillColor=#b0e3e6;strokeColor=#0e8088;" parent="1" vertex="1">
          <mxGeometry x="1121" y="40" width="120" height="760" as="geometry" />
        </mxCell>
        <mxCell id="RUaxu5A9DFn4inM2jr1r-24" value="" style="html=1;points=[[0,0,0,0,5],[0,1,0,0,-5],[1,0,0,0,5],[1,1,0,0,-5]];perimeter=orthogonalPerimeter;outlineConnect=0;targetShapes=umlLifeline;portConstraint=eastwest;newEdgeStyle={&quot;curved&quot;:0,&quot;rounded&quot;:0};fillColor=#b0e3e6;strokeColor=#0e8088;" parent="RUaxu5A9DFn4inM2jr1r-23" vertex="1">
          <mxGeometry x="55" y="540" width="10" height="70" as="geometry" />
        </mxCell>
        <mxCell id="RUaxu5A9DFn4inM2jr1r-25" value="" style="endArrow=open;startArrow=none;endFill=0;startFill=0;endSize=8;html=1;verticalAlign=bottom;labelBackgroundColor=none;strokeWidth=1;rounded=0;" parent="1" target="RUaxu5A9DFn4inM2jr1r-9" edge="1">
          <mxGeometry width="160" relative="1" as="geometry">
            <mxPoint x="-15" y="130" as="sourcePoint" />
            <mxPoint x="170" y="130" as="targetPoint" />
          </mxGeometry>
        </mxCell>
        <mxCell id="RUaxu5A9DFn4inM2jr1r-27" value="&lt;font style=&quot;font-size: 12px;&quot;&gt;Demande de Connexion&lt;/font&gt;" style="text;strokeColor=none;fillColor=none;html=1;fontSize=24;fontStyle=1;verticalAlign=middle;align=center;" parent="1" vertex="1">
          <mxGeometry x="20" y="100" width="100" height="40" as="geometry" />
        </mxCell>
        <mxCell id="RUaxu5A9DFn4inM2jr1r-28" value="" style="endArrow=open;startArrow=none;endFill=0;startFill=0;endSize=8;html=1;verticalAlign=bottom;labelBackgroundColor=none;strokeWidth=1;rounded=0;" parent="1" edge="1">
          <mxGeometry width="160" relative="1" as="geometry">
            <mxPoint x="185" y="154" as="sourcePoint" />
            <mxPoint x="375" y="154" as="targetPoint" />
          </mxGeometry>
        </mxCell>
        <mxCell id="RUaxu5A9DFn4inM2jr1r-29" value="&lt;font style=&quot;font-size: 12px;&quot;&gt;&lt;span style=&quot;background-color: initial;&quot;&gt;Redirection vers&amp;nbsp;&lt;/span&gt;&lt;br&gt;&lt;span style=&quot;background-color: initial;&quot;&gt;Microsoft Identity Platform&lt;/span&gt;&lt;/font&gt;" style="text;strokeColor=none;fillColor=none;html=1;fontSize=24;fontStyle=1;verticalAlign=middle;align=center;" parent="1" vertex="1">
          <mxGeometry x="220" y="130" width="100" height="34" as="geometry" />
        </mxCell>
        <mxCell id="RUaxu5A9DFn4inM2jr1r-38" value="&lt;b&gt;&lt;font style=&quot;font-size: 12px;&quot;&gt;Page de Connexion&lt;/font&gt;&lt;/b&gt;" style="html=1;verticalAlign=bottom;endArrow=open;dashed=1;endSize=8;curved=0;rounded=0;strokeWidth=2;" parent="1" target="RUaxu5A9DFn4inM2jr1r-15" edge="1">
          <mxGeometry x="-0.4286" relative="1" as="geometry">
            <mxPoint x="370" y="230" as="sourcePoint" />
            <mxPoint x="290" y="230" as="targetPoint" />
            <mxPoint as="offset" />
          </mxGeometry>
        </mxCell>
        <mxCell id="RUaxu5A9DFn4inM2jr1r-39" value="" style="endArrow=open;startArrow=none;endFill=0;startFill=0;endSize=8;html=1;verticalAlign=bottom;labelBackgroundColor=none;strokeWidth=1;rounded=0;" parent="1" target="RUaxu5A9DFn4inM2jr1r-42" edge="1">
          <mxGeometry width="160" relative="1" as="geometry">
            <mxPoint x="-19" y="279.76" as="sourcePoint" />
            <mxPoint x="370" y="280" as="targetPoint" />
          </mxGeometry>
        </mxCell>
        <mxCell id="RUaxu5A9DFn4inM2jr1r-41" value="&lt;span style=&quot;font-size: 12px;&quot;&gt;Saisie ses Identifiants&amp;nbsp;&lt;/span&gt;" style="text;strokeColor=none;fillColor=none;html=1;fontSize=24;fontStyle=1;verticalAlign=middle;align=center;" parent="1" vertex="1">
          <mxGeometry x="30" y="250" width="100" height="34" as="geometry" />
        </mxCell>
        <mxCell id="RUaxu5A9DFn4inM2jr1r-44" value="&lt;font size=&quot;1&quot; color=&quot;#0f0e0f&quot; style=&quot;&quot;&gt;&lt;b style=&quot;font-size: 12px;&quot;&gt;Vérification des Identifiants&amp;nbsp;&lt;/b&gt;&lt;/font&gt;" style="html=1;align=left;spacingLeft=2;endArrow=block;rounded=0;edgeStyle=orthogonalEdgeStyle;curved=0;rounded=0;strokeColor=#726B78;strokeWidth=2;" parent="1" edge="1">
          <mxGeometry x="-0.8821" y="-10" relative="1" as="geometry">
            <mxPoint x="381" y="291" as="sourcePoint" />
            <Array as="points">
              <mxPoint x="411" y="321" />
            </Array>
            <mxPoint x="386" y="321.02857142857135" as="targetPoint" />
            <mxPoint as="offset" />
          </mxGeometry>
        </mxCell>
        <mxCell id="RUaxu5A9DFn4inM2jr1r-49" value="&lt;font style=&quot;font-size: 12px;&quot;&gt;&lt;b&gt;Demande d&#39;accès au données&lt;/b&gt;&lt;/font&gt;" style="html=1;verticalAlign=bottom;endArrow=open;endSize=8;curved=0;rounded=0;exitX=1;exitY=1;exitDx=0;exitDy=-5;strokeWidth=2;" parent="1" target="RUaxu5A9DFn4inM2jr1r-22" edge="1">
          <mxGeometry relative="1" as="geometry">
            <mxPoint x="970" y="561" as="targetPoint" />
            <mxPoint x="785.9999999999998" y="561" as="sourcePoint" />
          </mxGeometry>
        </mxCell>
        <mxCell id="RUaxu5A9DFn4inM2jr1r-50" value="" style="endArrow=open;startArrow=none;endFill=0;startFill=0;endSize=8;html=1;verticalAlign=bottom;labelBackgroundColor=none;strokeWidth=1;rounded=0;" parent="1" edge="1">
          <mxGeometry width="160" relative="1" as="geometry">
            <mxPoint x="374" y="350" as="sourcePoint" />
            <mxPoint x="184" y="350" as="targetPoint" />
          </mxGeometry>
        </mxCell>
        <mxCell id="RUaxu5A9DFn4inM2jr1r-52" value="&lt;font style=&quot;font-size: 12px;&quot;&gt;Jeton d&#39;Accès&lt;/font&gt;" style="text;strokeColor=none;fillColor=none;html=1;fontSize=24;fontStyle=1;verticalAlign=middle;align=center;" parent="1" vertex="1">
          <mxGeometry x="230" y="320" width="100" height="40" as="geometry" />
        </mxCell>
        <mxCell id="RUaxu5A9DFn4inM2jr1r-53" value="" style="endArrow=open;startArrow=none;endFill=0;startFill=0;endSize=8;html=1;verticalAlign=bottom;labelBackgroundColor=none;strokeWidth=1;rounded=0;" parent="1" target="RUaxu5A9DFn4inM2jr1r-18" edge="1">
          <mxGeometry width="160" relative="1" as="geometry">
            <mxPoint x="185" y="410" as="sourcePoint" />
            <mxPoint x="570" y="410" as="targetPoint" />
          </mxGeometry>
        </mxCell>
        <mxCell id="RUaxu5A9DFn4inM2jr1r-54" value="&lt;font style=&quot;font-size: 12px;&quot;&gt;Envoie Requête HTTP avec Jeton&lt;/font&gt;" style="text;strokeColor=none;fillColor=none;html=1;fontSize=24;fontStyle=1;verticalAlign=middle;align=center;" parent="1" vertex="1">
          <mxGeometry x="325" y="380" width="100" height="40" as="geometry" />
        </mxCell>
        <mxCell id="RUaxu5A9DFn4inM2jr1r-55" value="&lt;font color=&quot;#39363b&quot; size=&quot;1&quot; style=&quot;&quot;&gt;&lt;b style=&quot;font-size: 12px;&quot;&gt;Traitement de la Requête&lt;/b&gt;&lt;/font&gt;" style="html=1;align=left;spacingLeft=2;endArrow=block;rounded=0;edgeStyle=orthogonalEdgeStyle;curved=0;rounded=0;strokeColor=#433F45;strokeWidth=2;" parent="1" edge="1">
          <mxGeometry x="-0.8821" y="-10" relative="1" as="geometry">
            <mxPoint x="580" y="430" as="sourcePoint" />
            <Array as="points">
              <mxPoint x="610" y="460" />
            </Array>
            <mxPoint x="585" y="460.02857142857135" as="targetPoint" />
            <mxPoint as="offset" />
          </mxGeometry>
        </mxCell>
        <mxCell id="RUaxu5A9DFn4inM2jr1r-57" value="" style="endArrow=open;startArrow=none;endFill=0;startFill=0;endSize=8;html=1;verticalAlign=bottom;labelBackgroundColor=none;strokeWidth=1;rounded=0;" parent="1" edge="1">
          <mxGeometry width="160" relative="1" as="geometry">
            <mxPoint x="586" y="530" as="sourcePoint" />
            <mxPoint x="776" y="530" as="targetPoint" />
          </mxGeometry>
        </mxCell>
        <mxCell id="RUaxu5A9DFn4inM2jr1r-58" value="&lt;font style=&quot;font-size: 12px;&quot;&gt;Transfert de la requête&lt;/font&gt;" style="text;strokeColor=none;fillColor=none;html=1;fontSize=24;fontStyle=1;verticalAlign=middle;align=center;" parent="1" vertex="1">
          <mxGeometry x="620" y="500" width="100" height="40" as="geometry" />
        </mxCell>
        <mxCell id="RUaxu5A9DFn4inM2jr1r-62" value="" style="endArrow=open;startArrow=none;endFill=0;startFill=0;endSize=8;html=1;verticalAlign=bottom;labelBackgroundColor=none;strokeWidth=1;rounded=0;" parent="1" edge="1">
          <mxGeometry width="160" relative="1" as="geometry">
            <mxPoint x="986" y="586" as="sourcePoint" />
            <mxPoint x="1176" y="586" as="targetPoint" />
          </mxGeometry>
        </mxCell>
        <mxCell id="RUaxu5A9DFn4inM2jr1r-63" value="&lt;font style=&quot;font-size: 12px;&quot;&gt;Execute la Requête SQL&amp;nbsp;&lt;/font&gt;&lt;div&gt;&lt;font style=&quot;font-size: 12px;&quot;&gt;Sur La BD&lt;/font&gt;&lt;/div&gt;" style="text;strokeColor=none;fillColor=none;html=1;fontSize=24;fontStyle=1;verticalAlign=middle;align=center;" parent="1" vertex="1">
          <mxGeometry x="1030" y="559" width="100" height="40" as="geometry" />
        </mxCell>
        <mxCell id="RUaxu5A9DFn4inM2jr1r-65" value="&lt;span style=&quot;font-size: 12px;&quot;&gt;&lt;b&gt;Résultat de la Requête&lt;/b&gt;&lt;/span&gt;" style="html=1;verticalAlign=bottom;endArrow=open;dashed=1;endSize=8;curved=0;rounded=0;exitX=1;exitY=1;exitDx=0;exitDy=-5;strokeWidth=2;" parent="1" edge="1">
          <mxGeometry relative="1" as="geometry">
            <mxPoint x="983.9999999999998" y="639.58" as="targetPoint" />
            <mxPoint x="1178" y="639.58" as="sourcePoint" />
          </mxGeometry>
        </mxCell>
        <mxCell id="RUaxu5A9DFn4inM2jr1r-69" value="&lt;span style=&quot;font-size: 12px;&quot;&gt;&lt;b&gt;Retour des données&amp;nbsp;&lt;/b&gt;&lt;/span&gt;" style="html=1;verticalAlign=bottom;endArrow=open;dashed=1;endSize=8;curved=0;rounded=0;exitX=1;exitY=1;exitDx=0;exitDy=-5;strokeWidth=2;" parent="1" target="RUaxu5A9DFn4inM2jr1r-70" edge="1">
          <mxGeometry relative="1" as="geometry">
            <mxPoint x="790" y="670" as="targetPoint" />
            <mxPoint x="975" y="671" as="sourcePoint" />
          </mxGeometry>
        </mxCell>
        <mxCell id="RUaxu5A9DFn4inM2jr1r-71" value="&lt;span style=&quot;font-size: 12px;&quot;&gt;&lt;b&gt;Réponse de L&#39;API&lt;/b&gt;&lt;/span&gt;" style="html=1;verticalAlign=bottom;endArrow=open;dashed=1;endSize=8;curved=0;rounded=0;exitX=1;exitY=1;exitDx=0;exitDy=-5;strokeWidth=2;" parent="1" edge="1">
          <mxGeometry relative="1" as="geometry">
            <mxPoint x="585" y="700" as="targetPoint" />
            <mxPoint x="775" y="700" as="sourcePoint" />
          </mxGeometry>
        </mxCell>
        <mxCell id="RUaxu5A9DFn4inM2jr1r-74" value="" style="endArrow=open;startArrow=none;endFill=0;startFill=0;endSize=8;html=1;verticalAlign=bottom;labelBackgroundColor=none;strokeWidth=1;rounded=0;" parent="1" edge="1">
          <mxGeometry width="160" relative="1" as="geometry">
            <mxPoint x="575" y="731" as="sourcePoint" />
            <mxPoint x="185" y="731" as="targetPoint" />
          </mxGeometry>
        </mxCell>
        <mxCell id="RUaxu5A9DFn4inM2jr1r-76" value="" style="shape=umlDestroy;dashed=0;targetShapes=umlLifeline;fillColor=#E1D5E7;strokeColor=#645E66;strokeWidth=2;" parent="1" vertex="1">
          <mxGeometry x="360" y="460" width="40" height="40" as="geometry" />
        </mxCell>
        <mxCell id="RUaxu5A9DFn4inM2jr1r-77" value="&lt;font style=&quot;font-size: 12px;&quot;&gt;Réponse Requête HTTP&lt;/font&gt;" style="text;strokeColor=none;fillColor=none;html=1;fontSize=24;fontStyle=1;verticalAlign=middle;align=center;" parent="1" vertex="1">
          <mxGeometry x="320" y="700" width="100" height="40" as="geometry" />
        </mxCell>
        <mxCell id="RUaxu5A9DFn4inM2jr1r-80" value="&lt;b&gt;&lt;font style=&quot;font-size: 12px;&quot;&gt;Affiche les Données&lt;/font&gt;&lt;/b&gt;" style="html=1;verticalAlign=bottom;endArrow=open;dashed=1;endSize=8;curved=0;rounded=0;strokeWidth=2;" parent="1" edge="1">
          <mxGeometry x="0.0769" relative="1" as="geometry">
            <mxPoint x="175" y="760" as="sourcePoint" />
            <mxPoint x="-20" y="760" as="targetPoint" />
            <mxPoint as="offset" />
          </mxGeometry>
        </mxCell>
      </root>
    </mxGraphModel>
  </diagram>
</mxfile>
